# Wavefront OBJ file automatically generated by Tiled2Unity

# Vertices (Count = 151)
v 0 -15 0
v -1 -15 0
v -1 -14 0
v 0 -14 0
v -13 -15 0
v -14 -15 0
v -14 -14 0
v -13 -14 0
v -15 -15 0
v -15 -14 0
v -16 -15 0
v -16 -14 0
v -17 -15 0
v -17 -14 0
v -18 -15 0
v -18 -14 0
v -2 -8 0
v -3 -8 0
v -3 -7 0
v -2 -7 0
v -4 -8 0
v -4 -7 0
v -18 -8 0
v -19 -8 0
v -19 -7 0
v -18 -7 0
v -20 -8 0
v -20 -7 0
v -2 -9 0
v -3 -9 0
v -4 -9 0
v -5 -9 0
v -5 -8 0
v -6 -9 0
v -6 -8 0
v -7 -9 0
v -7 -8 0
v -8 -9 0
v -8 -8 0
v -9 -9 0
v -9 -8 0
v -10 -9 0
v -10 -8 0
v -18 -9 0
v -19 -9 0
v -20 -9 0
v -2 -10 0
v -3 -10 0
v -4 -10 0
v -5 -10 0
v -6 -10 0
v -7 -10 0
v -8 -10 0
v -9 -10 0
v -10 -10 0
v -18 -10 0
v -19 -10 0
v -20 -10 0
v -2 -11 0
v -3 -11 0
v -4 -11 0
v -5 -11 0
v -6 -11 0
v -7 -11 0
v -8 -11 0
v -9 -11 0
v -10 -11 0
v -18 -11 0
v -19 -11 0
v -20 -11 0
v -2 -12 0
v -3 -12 0
v -4 -12 0
v -5 -12 0
v -6 -12 0
v -7 -12 0
v -8 -12 0
v -9 -12 0
v -10 -12 0
v -11 -12 0
v -11 -11 0
v -12 -12 0
v -12 -11 0
v -13 -12 0
v -13 -11 0
v -18 -12 0
v -19 -12 0
v -20 -12 0
v -2 -13 0
v -3 -13 0
v -4 -13 0
v -5 -13 0
v -6 -13 0
v -7 -13 0
v -8 -13 0
v -9 -13 0
v -10 -13 0
v -11 -13 0
v -12 -13 0
v -13 -13 0
v -18 -13 0
v -19 -13 0
v -20 -13 0
v -2 -14 0
v -1 -13 0
v -3 -14 0
v -4 -14 0
v -5 -14 0
v -6 -14 0
v -7 -14 0
v -8 -14 0
v -9 -14 0
v -10 -14 0
v -11 -14 0
v -12 -14 0
v -19 -14 0
v -20 -14 0
v -2 -15 0
v -3 -15 0
v -4 -15 0
v -5 -15 0
v -6 -15 0
v -7 -15 0
v -8 -15 0
v -9 -15 0
v -10 -15 0
v -11 -15 0
v -12 -15 0
v -19 -15 0
v -20 -15 0
v -3 -6 0
v -2 -6 0
v -11 -10 0
v -1 -10 0
v -1 -9 0
v -17 -10 0
v -17 -9 0
v -11 -9 0
v -17 -11 0
v 0 -12 0
v -1 -12 0
v -1 -11 0
v 0 -11 0
v -16 -12 0
v -17 -12 0
v -16 -11 0
v -15 -13 0
v -16 -13 0
v -15 -12 0
v -17 -13 0
v -14 -13 0

# Texture Coorindates (Count = 40)
vt 0.6364857 0.08345541
vt 0.6816961 0.08345541
vt 0.6816961 0.1665446
vt 0.6364857 0.1665446
vt 0.04557662 0.6667888
vt 0.09078702 0.6667888
vt 0.09078702 0.7498779
vt 0.04557662 0.7498779
vt 0.1364857 0.6667888
vt 0.1816961 0.6667888
vt 0.1816961 0.7498779
vt 0.1364857 0.7498779
vt 0.09103116 0.6667888
vt 0.1362416 0.6667888
vt 0.1362416 0.7498779
vt 0.09103116 0.7498779
vt 0.0001220703 0.6667888
vt 0.04533248 0.6667888
vt 0.04533248 0.7498779
vt 0.0001220703 0.7498779
vt 0.2728494 0.5834554
vt 0.3180597 0.5834554
vt 0.3180597 0.6665446
vt 0.2728494 0.6665446
vt 0.2273948 0.5834554
vt 0.2726052 0.5834554
vt 0.2726052 0.6665446
vt 0.2273948 0.6665446
vt 0.409213 0.6667888
vt 0.4544234 0.6667888
vt 0.4544234 0.7498779
vt 0.409213 0.7498779
vt 0.8183039 0.1667887
vt 0.8635143 0.1667887
vt 0.8635143 0.2498779
vt 0.8183039 0.2498779
vt 0.8183039 0.2501221
vt 0.8635143 0.2501221
vt 0.8635143 0.3332113
vt 0.8183039 0.3332113

# Normal
vn 0 0 -1

# Groups (Count = 5)
g mesh_[00]_[00]
f  1/1/1  2/2/1  3/3/1  4/4/1 
f  5/1/1  6/2/1  7/3/1  8/4/1 
f  6/1/1  9/2/1  10/3/1  7/4/1 
f  9/1/1  11/2/1  12/3/1  10/4/1 
f  11/1/1  13/2/1  14/3/1  12/4/1 
f  13/1/1  15/2/1  16/3/1  14/4/1 
g mesh_[01]_[00]
f  17/5/1  18/6/1  19/7/1  20/8/1 
f  18/9/1  21/10/1  22/11/1  19/12/1 
f  23/5/1  24/6/1  25/7/1  26/8/1 
f  24/13/1  27/14/1  28/15/1  25/16/1 
f  29/17/1  30/18/1  18/19/1  17/20/1 
f  30/21/1  31/22/1  21/23/1  18/24/1 
f  31/13/1  32/14/1  33/15/1  21/16/1 
f  32/13/1  34/14/1  35/15/1  33/16/1 
f  34/13/1  36/14/1  37/15/1  35/16/1 
f  36/13/1  38/14/1  39/15/1  37/16/1 
f  38/13/1  40/14/1  41/15/1  39/16/1 
f  40/9/1  42/10/1  43/11/1  41/12/1 
f  44/17/1  45/18/1  24/19/1  23/20/1 
f  45/17/1  46/18/1  27/19/1  24/20/1 
f  47/17/1  48/18/1  30/19/1  29/20/1 
f  48/17/1  49/18/1  31/19/1  30/20/1 
f  49/17/1  50/18/1  32/19/1  31/20/1 
f  50/17/1  51/18/1  34/19/1  32/20/1 
f  51/17/1  52/18/1  36/19/1  34/20/1 
f  52/17/1  53/18/1  38/19/1  36/20/1 
f  53/17/1  54/18/1  40/19/1  38/20/1 
f  54/17/1  55/18/1  42/19/1  40/20/1 
f  56/17/1  57/18/1  45/19/1  44/20/1 
f  57/17/1  58/18/1  46/19/1  45/20/1 
f  59/17/1  60/18/1  48/19/1  47/20/1 
f  60/17/1  61/18/1  49/19/1  48/20/1 
f  61/17/1  62/18/1  50/19/1  49/20/1 
f  62/17/1  63/18/1  51/19/1  50/20/1 
f  63/17/1  64/18/1  52/19/1  51/20/1 
f  64/17/1  65/18/1  53/19/1  52/20/1 
f  65/17/1  66/18/1  54/19/1  53/20/1 
f  66/17/1  67/18/1  55/19/1  54/20/1 
f  68/17/1  69/18/1  57/19/1  56/20/1 
f  69/17/1  70/18/1  58/19/1  57/20/1 
f  71/17/1  72/18/1  60/19/1  59/20/1 
f  72/17/1  73/18/1  61/19/1  60/20/1 
f  73/17/1  74/18/1  62/19/1  61/20/1 
f  74/17/1  75/18/1  63/19/1  62/20/1 
f  75/17/1  76/18/1  64/19/1  63/20/1 
f  76/17/1  77/18/1  65/19/1  64/20/1 
f  77/17/1  78/18/1  66/19/1  65/20/1 
f  78/21/1  79/22/1  67/23/1  66/24/1 
f  79/13/1  80/14/1  81/15/1  67/16/1 
f  80/13/1  82/14/1  83/15/1  81/16/1 
f  82/9/1  84/10/1  85/11/1  83/12/1 
f  86/17/1  87/18/1  69/19/1  68/20/1 
f  87/17/1  88/18/1  70/19/1  69/20/1 
f  89/17/1  90/18/1  72/19/1  71/20/1 
f  90/17/1  91/18/1  73/19/1  72/20/1 
f  91/17/1  92/18/1  74/19/1  73/20/1 
f  92/17/1  93/18/1  75/19/1  74/20/1 
f  93/17/1  94/18/1  76/19/1  75/20/1 
f  94/17/1  95/18/1  77/19/1  76/20/1 
f  95/17/1  96/18/1  78/19/1  77/20/1 
f  96/17/1  97/18/1  79/19/1  78/20/1 
f  97/17/1  98/18/1  80/19/1  79/20/1 
f  98/17/1  99/18/1  82/19/1  80/20/1 
f  99/17/1  100/18/1  84/19/1  82/20/1 
f  101/17/1  102/18/1  87/19/1  86/20/1 
f  102/17/1  103/18/1  88/19/1  87/20/1 
f  3/5/1  104/6/1  89/7/1  105/8/1 
f  104/25/1  106/26/1  90/27/1  89/28/1 
f  106/17/1  107/18/1  91/19/1  90/20/1 
f  107/17/1  108/18/1  92/19/1  91/20/1 
f  108/17/1  109/18/1  93/19/1  92/20/1 
f  109/17/1  110/18/1  94/19/1  93/20/1 
f  110/17/1  111/18/1  95/19/1  94/20/1 
f  111/17/1  112/18/1  96/19/1  95/20/1 
f  112/17/1  113/18/1  97/19/1  96/20/1 
f  113/17/1  114/18/1  98/19/1  97/20/1 
f  114/17/1  115/18/1  99/19/1  98/20/1 
f  115/17/1  8/18/1  100/19/1  99/20/1 
f  16/17/1  116/18/1  102/19/1  101/20/1 
f  116/17/1  117/18/1  103/19/1  102/20/1 
f  2/17/1  118/18/1  104/19/1  3/20/1 
f  118/17/1  119/18/1  106/19/1  104/20/1 
f  119/17/1  120/18/1  107/19/1  106/20/1 
f  120/17/1  121/18/1  108/19/1  107/20/1 
f  121/17/1  122/18/1  109/19/1  108/20/1 
f  122/17/1  123/18/1  110/19/1  109/20/1 
f  123/17/1  124/18/1  111/19/1  110/20/1 
f  124/17/1  125/18/1  112/19/1  111/20/1 
f  125/17/1  126/18/1  113/19/1  112/20/1 
f  126/17/1  127/18/1  114/19/1  113/20/1 
f  127/17/1  128/18/1  115/19/1  114/20/1 
f  128/17/1  5/18/1  8/19/1  115/20/1 
f  15/17/1  129/18/1  116/19/1  16/20/1 
f  129/17/1  130/18/1  117/19/1  116/20/1 
g mesh_[02]_[00]
f  20/29/1  19/30/1  131/31/1  132/32/1 
f  67/29/1  81/30/1  133/31/1  55/32/1 
g mesh_[03]_[00]
f  134/33/1  47/34/1  29/35/1  135/36/1 
f  136/33/1  56/34/1  44/35/1  137/36/1 
g mesh_[04]_[00]
f  55/37/1  133/38/1  138/39/1  42/40/1 
f  139/37/1  68/38/1  56/39/1  136/40/1 
f  140/37/1  141/38/1  142/39/1  143/40/1 
f  144/37/1  145/38/1  139/39/1  146/40/1 
f  145/37/1  86/38/1  68/39/1  139/40/1 
f  147/37/1  148/38/1  144/39/1  149/40/1 
f  148/37/1  150/38/1  145/39/1  144/40/1 
f  150/37/1  101/38/1  86/39/1  145/40/1 
f  8/37/1  7/38/1  151/39/1  100/40/1 
f  7/37/1  10/38/1  147/39/1  151/40/1 
f  10/37/1  12/38/1  148/39/1  147/40/1 
f  12/37/1  14/38/1  150/39/1  148/40/1 
f  14/37/1  16/38/1  101/39/1  150/40/1 
