# Wavefront OBJ file automatically generated by Tiled2Unity

# Vertices (Count = 190)
v -7 -5 0
v -8 -5 0
v -8 -4 0
v -7 -4 0
v -9 -5 0
v -9 -4 0
v -10 -5 0
v -10 -4 0
v -11 -5 0
v -11 -4 0
v -12 -5 0
v -12 -4 0
v -7 -6 0
v -8 -6 0
v -9 -6 0
v -10 -6 0
v -11 -6 0
v -12 -6 0
v 0 -7 0
v -1 -7 0
v -1 -6 0
v 0 -6 0
v -2 -7 0
v -2 -6 0
v -7 -7 0
v -8 -7 0
v -9 -7 0
v -10 -7 0
v -11 -7 0
v -12 -7 0
v 0 -8 0
v -1 -8 0
v -2 -8 0
v -7 -8 0
v -8 -8 0
v -9 -8 0
v -10 -8 0
v -11 -8 0
v -12 -8 0
v 0 -9 0
v -1 -9 0
v -2 -9 0
v -7 -9 0
v -8 -9 0
v -9 -9 0
v -10 -9 0
v -11 -9 0
v -12 -9 0
v 0 -10 0
v -1 -10 0
v -2 -10 0
v -3 -10 0
v -3 -9 0
v -4 -10 0
v -4 -9 0
v -5 -10 0
v -5 -9 0
v -6 -10 0
v -6 -9 0
v -7 -10 0
v -8 -10 0
v -9 -10 0
v -10 -10 0
v -11 -10 0
v -12 -10 0
v 0 -11 0
v -1 -11 0
v -2 -11 0
v -3 -11 0
v -4 -11 0
v -5 -11 0
v -6 -11 0
v -7 -11 0
v -8 -11 0
v -9 -11 0
v -10 -11 0
v -11 -11 0
v -12 -11 0
v 0 -12 0
v -1 -12 0
v -2 -12 0
v -3 -12 0
v -4 -12 0
v -5 -12 0
v -6 -12 0
v -7 -12 0
v -8 -12 0
v -9 -12 0
v -10 -12 0
v -11 -12 0
v -12 -12 0
v -13 -12 0
v -13 -11 0
v -14 -12 0
v -14 -11 0
v -15 -12 0
v -15 -11 0
v -17 -12 0
v -18 -12 0
v -18 -11 0
v -17 -11 0
v -19 -12 0
v -19 -11 0
v -20 -12 0
v -20 -11 0
v 0 -13 0
v -1 -13 0
v -2 -13 0
v -3 -13 0
v -4 -13 0
v -5 -13 0
v -6 -13 0
v -7 -13 0
v -8 -13 0
v -9 -13 0
v -10 -13 0
v -11 -13 0
v -12 -13 0
v -13 -13 0
v -14 -13 0
v -15 -13 0
v -17 -13 0
v -18 -13 0
v -19 -13 0
v -20 -13 0
v 0 -14 0
v -1 -14 0
v -2 -14 0
v -3 -14 0
v -4 -14 0
v -5 -14 0
v -6 -14 0
v -7 -14 0
v -8 -14 0
v -9 -14 0
v -10 -14 0
v -11 -14 0
v -12 -14 0
v -13 -14 0
v -14 -14 0
v -15 -14 0
v -17 -14 0
v -18 -14 0
v -19 -14 0
v -20 -14 0
v 0 -15 0
v -1 -15 0
v -2 -15 0
v -3 -15 0
v -4 -15 0
v -5 -15 0
v -6 -15 0
v -7 -15 0
v -8 -15 0
v -9 -15 0
v -10 -15 0
v -11 -15 0
v -12 -15 0
v -13 -15 0
v -14 -15 0
v -15 -15 0
v -17 -15 0
v -18 -15 0
v -19 -15 0
v -20 -15 0
v -8 -3 0
v -7 -3 0
v -11 -3 0
v -10 -3 0
v -6 -8 0
v -5 -8 0
v -18 -10 0
v -17 -10 0
v -14 -7 0
v -15 -7 0
v -15 -6 0
v -14 -6 0
v -16 -7 0
v -16 -6 0
v -17 -7 0
v -17 -6 0
v -18 -7 0
v -18 -6 0
v -3 -8 0
v -3 -7 0
v -1 -5 0
v 0 -5 0
v -16 -14 0
v -16 -13 0
v -16 -15 0

# Texture Coorindates (Count = 44)
vt 0.04557662 0.6667888
vt 0.09078702 0.6667888
vt 0.09078702 0.7498779
vt 0.04557662 0.7498779
vt 0.09103116 0.6667888
vt 0.1362416 0.6667888
vt 0.1362416 0.7498779
vt 0.09103116 0.7498779
vt 0.1364857 0.6667888
vt 0.1816961 0.6667888
vt 0.1816961 0.7498779
vt 0.1364857 0.7498779
vt 0.0001220703 0.6667888
vt 0.04533248 0.6667888
vt 0.04533248 0.7498779
vt 0.0001220703 0.7498779
vt 0.2728494 0.5834554
vt 0.3180597 0.5834554
vt 0.3180597 0.6665446
vt 0.2728494 0.6665446
vt 0.4546675 0.7501221
vt 0.4998779 0.7501221
vt 0.4998779 0.8332112
vt 0.4546675 0.8332112
vt 0.4546675 0.6667888
vt 0.4998779 0.6667888
vt 0.4998779 0.7498779
vt 0.4546675 0.7498779
vt 0.409213 0.7501221
vt 0.4544234 0.7501221
vt 0.4544234 0.8332112
vt 0.409213 0.8332112
vt 0.8183039 0.2501221
vt 0.8635143 0.2501221
vt 0.8635143 0.3332113
vt 0.8183039 0.3332113
vt 0.6364857 0.08345541
vt 0.6816961 0.08345541
vt 0.6816961 0.1665446
vt 0.6364857 0.1665446
vt 0.6364857 0.0001220703
vt 0.6816961 0.0001220703
vt 0.6816961 0.08321127
vt 0.6364857 0.08321127

# Normal
vn 0 0 -1

# Groups (Count = 4)
g mesh_[00]_[00]
f  1/1/1  2/2/1  3/3/1  4/4/1 
f  2/5/1  5/6/1  6/7/1  3/8/1 
f  5/5/1  7/6/1  8/7/1  6/8/1 
f  7/5/1  9/6/1  10/7/1  8/8/1 
f  9/9/1  11/10/1  12/11/1  10/12/1 
f  13/13/1  14/14/1  2/15/1  1/16/1 
f  14/13/1  15/14/1  5/15/1  2/16/1 
f  15/13/1  16/14/1  7/15/1  5/16/1 
f  16/13/1  17/14/1  9/15/1  7/16/1 
f  17/13/1  18/14/1  11/15/1  9/16/1 
f  19/5/1  20/6/1  21/7/1  22/8/1 
f  20/9/1  23/10/1  24/11/1  21/12/1 
f  25/13/1  26/14/1  14/15/1  13/16/1 
f  26/13/1  27/14/1  15/15/1  14/16/1 
f  27/13/1  28/14/1  16/15/1  15/16/1 
f  28/13/1  29/14/1  17/15/1  16/16/1 
f  29/13/1  30/14/1  18/15/1  17/16/1 
f  31/13/1  32/14/1  20/15/1  19/16/1 
f  32/13/1  33/14/1  23/15/1  20/16/1 
f  34/13/1  35/14/1  26/15/1  25/16/1 
f  35/13/1  36/14/1  27/15/1  26/16/1 
f  36/13/1  37/14/1  28/15/1  27/16/1 
f  37/13/1  38/14/1  29/15/1  28/16/1 
f  38/13/1  39/14/1  30/15/1  29/16/1 
f  40/13/1  41/14/1  32/15/1  31/16/1 
f  41/13/1  42/14/1  33/15/1  32/16/1 
f  43/13/1  44/14/1  35/15/1  34/16/1 
f  44/13/1  45/14/1  36/15/1  35/16/1 
f  45/13/1  46/14/1  37/15/1  36/16/1 
f  46/13/1  47/14/1  38/15/1  37/16/1 
f  47/13/1  48/14/1  39/15/1  38/16/1 
f  49/13/1  50/14/1  41/15/1  40/16/1 
f  50/17/1  51/18/1  42/19/1  41/20/1 
f  51/5/1  52/6/1  53/7/1  42/8/1 
f  52/5/1  54/6/1  55/7/1  53/8/1 
f  54/5/1  56/6/1  57/7/1  55/8/1 
f  56/9/1  58/10/1  59/11/1  57/12/1 
f  60/13/1  61/14/1  44/15/1  43/16/1 
f  61/13/1  62/14/1  45/15/1  44/16/1 
f  62/13/1  63/14/1  46/15/1  45/16/1 
f  63/13/1  64/14/1  47/15/1  46/16/1 
f  64/13/1  65/14/1  48/15/1  47/16/1 
f  66/13/1  67/14/1  50/15/1  49/16/1 
f  67/13/1  68/14/1  51/15/1  50/16/1 
f  68/13/1  69/14/1  52/15/1  51/16/1 
f  69/13/1  70/14/1  54/15/1  52/16/1 
f  70/13/1  71/14/1  56/15/1  54/16/1 
f  71/13/1  72/14/1  58/15/1  56/16/1 
f  73/13/1  74/14/1  61/15/1  60/16/1 
f  74/13/1  75/14/1  62/15/1  61/16/1 
f  75/13/1  76/14/1  63/15/1  62/16/1 
f  76/13/1  77/14/1  64/15/1  63/16/1 
f  77/13/1  78/14/1  65/15/1  64/16/1 
f  79/13/1  80/14/1  67/15/1  66/16/1 
f  80/13/1  81/14/1  68/15/1  67/16/1 
f  81/13/1  82/14/1  69/15/1  68/16/1 
f  82/13/1  83/14/1  70/15/1  69/16/1 
f  83/13/1  84/14/1  71/15/1  70/16/1 
f  84/13/1  85/14/1  72/15/1  71/16/1 
f  86/13/1  87/14/1  74/15/1  73/16/1 
f  87/13/1  88/14/1  75/15/1  74/16/1 
f  88/13/1  89/14/1  76/15/1  75/16/1 
f  89/13/1  90/14/1  77/15/1  76/16/1 
f  90/13/1  91/14/1  78/15/1  77/16/1 
f  91/5/1  92/6/1  93/7/1  78/8/1 
f  92/5/1  94/6/1  95/7/1  93/8/1 
f  94/9/1  96/10/1  97/11/1  95/12/1 
f  98/1/1  99/2/1  100/3/1  101/4/1 
f  99/5/1  102/6/1  103/7/1  100/8/1 
f  102/5/1  104/6/1  105/7/1  103/8/1 
f  106/13/1  107/14/1  80/15/1  79/16/1 
f  107/13/1  108/14/1  81/15/1  80/16/1 
f  108/13/1  109/14/1  82/15/1  81/16/1 
f  109/13/1  110/14/1  83/15/1  82/16/1 
f  110/13/1  111/14/1  84/15/1  83/16/1 
f  111/13/1  112/14/1  85/15/1  84/16/1 
f  113/13/1  114/14/1  87/15/1  86/16/1 
f  114/13/1  115/14/1  88/15/1  87/16/1 
f  115/13/1  116/14/1  89/15/1  88/16/1 
f  116/13/1  117/14/1  90/15/1  89/16/1 
f  117/13/1  118/14/1  91/15/1  90/16/1 
f  118/13/1  119/14/1  92/15/1  91/16/1 
f  119/13/1  120/14/1  94/15/1  92/16/1 
f  120/13/1  121/14/1  96/15/1  94/16/1 
f  122/13/1  123/14/1  99/15/1  98/16/1 
f  123/13/1  124/14/1  102/15/1  99/16/1 
f  124/13/1  125/14/1  104/15/1  102/16/1 
f  126/13/1  127/14/1  107/15/1  106/16/1 
f  127/13/1  128/14/1  108/15/1  107/16/1 
f  128/13/1  129/14/1  109/15/1  108/16/1 
f  129/13/1  130/14/1  110/15/1  109/16/1 
f  130/13/1  131/14/1  111/15/1  110/16/1 
f  131/13/1  132/14/1  112/15/1  111/16/1 
f  133/13/1  134/14/1  114/15/1  113/16/1 
f  134/13/1  135/14/1  115/15/1  114/16/1 
f  135/13/1  136/14/1  116/15/1  115/16/1 
f  136/13/1  137/14/1  117/15/1  116/16/1 
f  137/13/1  138/14/1  118/15/1  117/16/1 
f  138/13/1  139/14/1  119/15/1  118/16/1 
f  139/13/1  140/14/1  120/15/1  119/16/1 
f  140/13/1  141/14/1  121/15/1  120/16/1 
f  142/13/1  143/14/1  123/15/1  122/16/1 
f  143/13/1  144/14/1  124/15/1  123/16/1 
f  144/13/1  145/14/1  125/15/1  124/16/1 
f  146/13/1  147/14/1  127/15/1  126/16/1 
f  147/13/1  148/14/1  128/15/1  127/16/1 
f  148/13/1  149/14/1  129/15/1  128/16/1 
f  149/13/1  150/14/1  130/15/1  129/16/1 
f  150/13/1  151/14/1  131/15/1  130/16/1 
f  151/13/1  152/14/1  132/15/1  131/16/1 
f  153/13/1  154/14/1  134/15/1  133/16/1 
f  154/13/1  155/14/1  135/15/1  134/16/1 
f  155/13/1  156/14/1  136/15/1  135/16/1 
f  156/13/1  157/14/1  137/15/1  136/16/1 
f  157/13/1  158/14/1  138/15/1  137/16/1 
f  158/13/1  159/14/1  139/15/1  138/16/1 
f  159/13/1  160/14/1  140/15/1  139/16/1 
f  160/13/1  161/14/1  141/15/1  140/16/1 
f  162/13/1  163/14/1  143/15/1  142/16/1 
f  163/13/1  164/14/1  144/15/1  143/16/1 
f  164/13/1  165/14/1  145/15/1  144/16/1 
g mesh_[01]_[00]
f  4/21/1  3/22/1  166/23/1  167/24/1 
f  8/25/1  10/26/1  168/27/1  169/28/1 
f  57/25/1  59/26/1  170/27/1  171/28/1 
f  101/29/1  100/30/1  172/31/1  173/32/1 
g mesh_[03]_[00]
f  174/33/1  175/34/1  176/35/1  177/36/1 
f  175/33/1  178/34/1  179/35/1  176/36/1 
f  178/33/1  180/34/1  181/35/1  179/36/1 
f  180/33/1  182/34/1  183/35/1  181/36/1 
f  33/33/1  184/34/1  185/35/1  23/36/1 
g mesh_[04]_[00]
f  22/25/1  21/26/1  186/27/1  187/28/1 
f  126/37/1  127/38/1  107/39/1  106/40/1 
f  127/37/1  128/38/1  108/39/1  107/40/1 
f  128/37/1  129/38/1  109/39/1  108/40/1 
f  129/37/1  130/38/1  110/39/1  109/40/1 
f  130/37/1  131/38/1  111/39/1  110/40/1 
f  131/37/1  132/38/1  112/39/1  111/40/1 
f  132/37/1  133/38/1  113/39/1  112/40/1 
f  133/37/1  134/38/1  114/39/1  113/40/1 
f  134/37/1  135/38/1  115/39/1  114/40/1 
f  135/37/1  136/38/1  116/39/1  115/40/1 
f  136/37/1  137/38/1  117/39/1  116/40/1 
f  137/37/1  138/38/1  118/39/1  117/40/1 
f  138/37/1  139/38/1  119/39/1  118/40/1 
f  139/37/1  140/38/1  120/39/1  119/40/1 
f  140/37/1  141/38/1  121/39/1  120/40/1 
f  141/37/1  188/38/1  189/39/1  121/40/1 
f  188/37/1  142/38/1  122/39/1  189/40/1 
f  142/37/1  143/38/1  123/39/1  122/40/1 
f  143/37/1  144/38/1  124/39/1  123/40/1 
f  144/37/1  145/38/1  125/39/1  124/40/1 
f  146/41/1  147/42/1  127/43/1  126/44/1 
f  147/41/1  148/42/1  128/43/1  127/44/1 
f  148/41/1  149/42/1  129/43/1  128/44/1 
f  149/41/1  150/42/1  130/43/1  129/44/1 
f  150/41/1  151/42/1  131/43/1  130/44/1 
f  151/41/1  152/42/1  132/43/1  131/44/1 
f  152/41/1  153/42/1  133/43/1  132/44/1 
f  153/41/1  154/42/1  134/43/1  133/44/1 
f  154/41/1  155/42/1  135/43/1  134/44/1 
f  155/41/1  156/42/1  136/43/1  135/44/1 
f  156/41/1  157/42/1  137/43/1  136/44/1 
f  157/41/1  158/42/1  138/43/1  137/44/1 
f  158/41/1  159/42/1  139/43/1  138/44/1 
f  159/41/1  160/42/1  140/43/1  139/44/1 
f  160/41/1  161/42/1  141/43/1  140/44/1 
f  161/41/1  190/42/1  188/43/1  141/44/1 
f  190/41/1  162/42/1  142/43/1  188/44/1 
f  162/41/1  163/42/1  143/43/1  142/44/1 
f  163/41/1  164/42/1  144/43/1  143/44/1 
f  164/41/1  165/42/1  145/43/1  144/44/1 
