# Wavefront OBJ file automatically generated by Tiled2Unity

# Vertices (Count = 152)
v -6 -1 0
v -7 -1 0
v -7 0 0
v -6 0 0
v -17 -6 0
v -18 -6 0
v -18 -5 0
v -17 -5 0
v -19 -6 0
v -19 -5 0
v -20 -6 0
v -20 -5 0
v -17 -7 0
v -18 -7 0
v -19 -7 0
v -20 -7 0
v -17 -8 0
v -18 -8 0
v -19 -8 0
v -20 -8 0
v -17 -9 0
v -18 -9 0
v -19 -9 0
v -20 -9 0
v -17 -10 0
v -18 -10 0
v -19 -10 0
v -20 -10 0
v -17 -11 0
v -18 -11 0
v -19 -11 0
v -20 -11 0
v -3 -12 0
v -4 -12 0
v -4 -11 0
v -3 -11 0
v -5 -12 0
v -5 -11 0
v -6 -12 0
v -6 -11 0
v -7 -12 0
v -7 -11 0
v -8 -12 0
v -8 -11 0
v -17 -12 0
v -18 -12 0
v -19 -12 0
v -20 -12 0
v -3 -13 0
v -4 -13 0
v -5 -13 0
v -6 -13 0
v -7 -13 0
v -8 -13 0
v -17 -13 0
v -18 -13 0
v -19 -13 0
v -20 -13 0
v -3 -14 0
v -4 -14 0
v -5 -14 0
v -6 -14 0
v -7 -14 0
v -8 -14 0
v -17 -14 0
v -18 -14 0
v -19 -14 0
v -20 -14 0
v -3 -15 0
v -4 -15 0
v -5 -15 0
v -6 -15 0
v -7 -15 0
v -8 -15 0
v -17 -15 0
v -18 -15 0
v -19 -15 0
v -20 -15 0
v -18 -4 0
v -17 -4 0
v -4 -10 0
v -3 -10 0
v -8 -10 0
v -7 -10 0
v -8 -7 0
v -9 -7 0
v -9 -6 0
v -8 -6 0
v -10 -7 0
v -10 -6 0
v -11 -7 0
v -11 -6 0
v -12 -7 0
v -12 -6 0
v -13 -7 0
v -13 -6 0
v -14 -7 0
v -14 -6 0
v -15 -7 0
v -15 -6 0
v -16 -7 0
v -16 -6 0
v 0 -14 0
v -1 -14 0
v -1 -13 0
v 0 -13 0
v -2 -14 0
v -2 -13 0
v -9 -14 0
v -9 -13 0
v -10 -14 0
v -10 -13 0
v -11 -14 0
v -11 -13 0
v -12 -14 0
v -12 -13 0
v -13 -14 0
v -13 -13 0
v -14 -14 0
v -14 -13 0
v -15 -14 0
v -15 -13 0
v -16 -14 0
v -16 -13 0
v 0 -15 0
v -1 -15 0
v -2 -15 0
v -9 -15 0
v -10 -15 0
v -11 -15 0
v -12 -15 0
v -13 -15 0
v -14 -15 0
v -15 -15 0
v -16 -15 0
v -6 -2 0
v -7 -2 0
v -6 -3 0
v -7 -3 0
v -6 -4 0
v -7 -4 0
v -6 -5 0
v -7 -5 0
v -6 -6 0
v -7 -6 0
v -6 -7 0
v -7 -7 0
v -6 -8 0
v -7 -8 0
v -6 -9 0
v -7 -9 0
v -6 -10 0

# Texture Coorindates (Count = 44)
vt 0.7728493 0.2501221
vt 0.8180597 0.2501221
vt 0.8180597 0.3332113
vt 0.7728493 0.3332113
vt 0.04557662 0.6667888
vt 0.09078702 0.6667888
vt 0.09078702 0.7498779
vt 0.04557662 0.7498779
vt 0.09103116 0.6667888
vt 0.1362416 0.6667888
vt 0.1362416 0.7498779
vt 0.09103116 0.7498779
vt 0.0001220703 0.6667888
vt 0.04533248 0.6667888
vt 0.04533248 0.7498779
vt 0.0001220703 0.7498779
vt 0.1364857 0.6667888
vt 0.1816961 0.6667888
vt 0.1816961 0.7498779
vt 0.1364857 0.7498779
vt 0.4546675 0.6667888
vt 0.4998779 0.6667888
vt 0.4998779 0.7498779
vt 0.4546675 0.7498779
vt 0.409213 0.6667888
vt 0.4544234 0.6667888
vt 0.4544234 0.7498779
vt 0.409213 0.7498779
vt 0.8183039 0.2501221
vt 0.8635143 0.2501221
vt 0.8635143 0.3332113
vt 0.8183039 0.3332113
vt 0.6364857 0.08345541
vt 0.6816961 0.08345541
vt 0.6816961 0.1665446
vt 0.6364857 0.1665446
vt 0.6364857 0.0001220703
vt 0.6816961 0.0001220703
vt 0.6816961 0.08321127
vt 0.6364857 0.08321127
vt 0.909213 0.9167888
vt 0.9544234 0.9167888
vt 0.9544234 0.9998779
vt 0.909213 0.9998779

# Normal
vn 0 0 -1

# Groups (Count = 5)
g mesh_[00]_[00]
f  1/1/1  2/2/1  3/3/1  4/4/1 
f  5/5/1  6/6/1  7/7/1  8/8/1 
f  6/9/1  9/10/1  10/11/1  7/12/1 
f  9/9/1  11/10/1  12/11/1  10/12/1 
f  13/13/1  14/14/1  6/15/1  5/16/1 
f  14/13/1  15/14/1  9/15/1  6/16/1 
f  15/13/1  16/14/1  11/15/1  9/16/1 
f  17/13/1  18/14/1  14/15/1  13/16/1 
f  18/13/1  19/14/1  15/15/1  14/16/1 
f  19/13/1  20/14/1  16/15/1  15/16/1 
f  21/13/1  22/14/1  18/15/1  17/16/1 
f  22/13/1  23/14/1  19/15/1  18/16/1 
f  23/13/1  24/14/1  20/15/1  19/16/1 
f  25/13/1  26/14/1  22/15/1  21/16/1 
f  26/13/1  27/14/1  23/15/1  22/16/1 
f  27/13/1  28/14/1  24/15/1  23/16/1 
f  29/13/1  30/14/1  26/15/1  25/16/1 
f  30/13/1  31/14/1  27/15/1  26/16/1 
f  31/13/1  32/14/1  28/15/1  27/16/1 
f  33/5/1  34/6/1  35/7/1  36/8/1 
f  34/9/1  37/10/1  38/11/1  35/12/1 
f  37/9/1  39/10/1  40/11/1  38/12/1 
f  39/9/1  41/10/1  42/11/1  40/12/1 
f  41/17/1  43/18/1  44/19/1  42/20/1 
f  45/13/1  46/14/1  30/15/1  29/16/1 
f  46/13/1  47/14/1  31/15/1  30/16/1 
f  47/13/1  48/14/1  32/15/1  31/16/1 
f  49/13/1  50/14/1  34/15/1  33/16/1 
f  50/13/1  51/14/1  37/15/1  34/16/1 
f  51/13/1  52/14/1  39/15/1  37/16/1 
f  52/13/1  53/14/1  41/15/1  39/16/1 
f  53/13/1  54/14/1  43/15/1  41/16/1 
f  55/13/1  56/14/1  46/15/1  45/16/1 
f  56/13/1  57/14/1  47/15/1  46/16/1 
f  57/13/1  58/14/1  48/15/1  47/16/1 
f  59/13/1  60/14/1  50/15/1  49/16/1 
f  60/13/1  61/14/1  51/15/1  50/16/1 
f  61/13/1  62/14/1  52/15/1  51/16/1 
f  62/13/1  63/14/1  53/15/1  52/16/1 
f  63/13/1  64/14/1  54/15/1  53/16/1 
f  65/13/1  66/14/1  56/15/1  55/16/1 
f  66/13/1  67/14/1  57/15/1  56/16/1 
f  67/13/1  68/14/1  58/15/1  57/16/1 
f  69/13/1  70/14/1  60/15/1  59/16/1 
f  70/13/1  71/14/1  61/15/1  60/16/1 
f  71/13/1  72/14/1  62/15/1  61/16/1 
f  72/13/1  73/14/1  63/15/1  62/16/1 
f  73/13/1  74/14/1  64/15/1  63/16/1 
f  75/13/1  76/14/1  66/15/1  65/16/1 
f  76/13/1  77/14/1  67/15/1  66/16/1 
f  77/13/1  78/14/1  68/15/1  67/16/1 
g mesh_[01]_[00]
f  8/21/1  7/22/1  79/23/1  80/24/1 
f  36/25/1  35/26/1  81/27/1  82/28/1 
f  42/21/1  44/22/1  83/23/1  84/24/1 
g mesh_[03]_[00]
f  85/29/1  86/30/1  87/31/1  88/32/1 
f  86/29/1  89/30/1  90/31/1  87/32/1 
f  89/29/1  91/30/1  92/31/1  90/32/1 
f  91/29/1  93/30/1  94/31/1  92/32/1 
f  93/29/1  95/30/1  96/31/1  94/32/1 
f  95/29/1  97/30/1  98/31/1  96/32/1 
f  97/29/1  99/30/1  100/31/1  98/32/1 
f  99/29/1  101/30/1  102/31/1  100/32/1 
f  101/29/1  13/30/1  5/31/1  102/32/1 
g mesh_[04]_[00]
f  103/33/1  104/34/1  105/35/1  106/36/1 
f  104/33/1  107/34/1  108/35/1  105/36/1 
f  107/33/1  59/34/1  49/35/1  108/36/1 
f  59/33/1  60/34/1  50/35/1  49/36/1 
f  60/33/1  61/34/1  51/35/1  50/36/1 
f  61/33/1  62/34/1  52/35/1  51/36/1 
f  62/33/1  63/34/1  53/35/1  52/36/1 
f  63/33/1  64/34/1  54/35/1  53/36/1 
f  64/33/1  109/34/1  110/35/1  54/36/1 
f  109/33/1  111/34/1  112/35/1  110/36/1 
f  111/33/1  113/34/1  114/35/1  112/36/1 
f  113/33/1  115/34/1  116/35/1  114/36/1 
f  115/33/1  117/34/1  118/35/1  116/36/1 
f  117/33/1  119/34/1  120/35/1  118/36/1 
f  119/33/1  121/34/1  122/35/1  120/36/1 
f  121/33/1  123/34/1  124/35/1  122/36/1 
f  123/33/1  65/34/1  55/35/1  124/36/1 
f  65/33/1  66/34/1  56/35/1  55/36/1 
f  66/33/1  67/34/1  57/35/1  56/36/1 
f  67/33/1  68/34/1  58/35/1  57/36/1 
f  125/37/1  126/38/1  104/39/1  103/40/1 
f  126/37/1  127/38/1  107/39/1  104/40/1 
f  127/37/1  69/38/1  59/39/1  107/40/1 
f  69/37/1  70/38/1  60/39/1  59/40/1 
f  70/37/1  71/38/1  61/39/1  60/40/1 
f  71/37/1  72/38/1  62/39/1  61/40/1 
f  72/37/1  73/38/1  63/39/1  62/40/1 
f  73/37/1  74/38/1  64/39/1  63/40/1 
f  74/37/1  128/38/1  109/39/1  64/40/1 
f  128/37/1  129/38/1  111/39/1  109/40/1 
f  129/37/1  130/38/1  113/39/1  111/40/1 
f  130/37/1  131/38/1  115/39/1  113/40/1 
f  131/37/1  132/38/1  117/39/1  115/40/1 
f  132/37/1  133/38/1  119/39/1  117/40/1 
f  133/37/1  134/38/1  121/39/1  119/40/1 
f  134/37/1  135/38/1  123/39/1  121/40/1 
f  135/37/1  75/38/1  65/39/1  123/40/1 
f  75/37/1  76/38/1  66/39/1  65/40/1 
f  76/37/1  77/38/1  67/39/1  66/40/1 
f  77/37/1  78/38/1  68/39/1  67/40/1 
g mesh_[05]_[00]
f  136/41/1  137/42/1  2/43/1  1/44/1 
f  138/41/1  139/42/1  137/43/1  136/44/1 
f  140/41/1  141/42/1  139/43/1  138/44/1 
f  142/41/1  143/42/1  141/43/1  140/44/1 
f  144/41/1  145/42/1  143/43/1  142/44/1 
f  146/41/1  147/42/1  145/43/1  144/44/1 
f  148/41/1  149/42/1  147/43/1  146/44/1 
f  150/41/1  151/42/1  149/43/1  148/44/1 
f  152/41/1  84/42/1  151/43/1  150/44/1 
f  40/41/1  42/42/1  84/43/1  152/44/1 
